<svg width="122" height="73" viewBox="0 0 122 73" fill="none" xmlns="http://www.w3.org/2000/svg">
<g opacity="0.3">
<path d="M116.62 66.4808C120.32 56.9808 122.62 44.6808 121.32 34.5808C120.92 31.3808 120.22 28.3808 117.52 26.3808C113.22 23.2808 106.32 22.1808 101.32 20.4808C75.4202 12.0808 48.7202 4.8808 21.7202 0.880803C15.2202 -0.319197 5.72021 -1.31919 5.52021 5.18081C4.02021 8.78081 3.5202 13.0808 2.9202 16.8808C1.8202 22.9808 0.820209 29.2808 0.520209 35.4808C-0.0797911 46.6808 6.5202 49.5808 16.4202 51.7808C29.6202 54.7808 42.8202 57.6808 56.0202 60.5808C70.0202 63.6808 83.9202 66.7808 97.9202 69.8808C105.22 71.4808 113.22 75.3808 116.62 66.4808ZM89.0202 66.1808C82.8202 64.7808 76.6202 63.3808 70.4202 61.9808C58.0202 59.1808 45.6202 56.4808 33.2202 53.6808C27.0202 52.2808 20.8202 50.9808 14.6202 49.4808C11.8202 48.7808 8.8202 48.1808 6.4202 46.5808C1.7202 43.3808 2.0202 38.3808 2.4202 33.4808C2.8202 27.9808 3.62021 22.3808 4.62021 16.9808C5.12021 13.8808 5.52021 10.5808 6.52021 7.5808C6.82021 6.6808 7.22023 5.58081 7.82023 4.48081C7.72023 4.48081 7.62021 4.3808 7.52021 4.3808C7.92021 3.7808 8.4202 3.1808 8.9202 2.5808C13.4202 0.3808 22.4202 2.6808 26.3202 2.8808C26.4202 2.8808 26.5202 2.8808 26.6202 2.8808C28.6202 3.2808 30.6202 3.68081 32.6202 4.18081C32.4202 4.58081 32.3202 5.0808 32.2202 5.5808C32.1202 6.2808 32.0202 6.9808 32.1202 7.5808C32.2202 8.0808 32.9202 7.98081 32.9202 7.48081C32.9202 6.88081 32.9202 6.2808 33.0202 5.7808C33.1202 5.2808 33.3202 4.7808 33.3202 4.2808C51.0202 8.0808 68.7202 12.1808 86.1202 17.2808C91.7202 18.9808 97.4202 20.6808 103.02 22.5808C105.82 23.4808 108.72 24.2808 111.42 25.3808C116.62 27.5808 119.22 29.2808 119.92 34.7808C120.82 41.2808 119.72 47.9808 118.32 54.3808C116.82 60.9808 116.02 70.6808 106.52 69.9808C100.82 69.6808 94.6202 67.3808 89.0202 66.1808Z" fill="#2153A5"/>
<path d="M32.1203 15.8808C32.1203 14.6808 32.1203 13.3808 31.9203 12.1808C31.9203 11.8808 31.5203 11.9808 31.4203 12.1808C31.3203 13.3808 31.3203 14.6808 31.3203 15.8808C31.4203 16.3808 32.1203 16.2808 32.1203 15.8808Z" fill="#2153A5"/>
<path d="M31.3201 23.5808C31.5201 23.2808 31.3201 23.0808 31.0201 22.9808V22.8808C31.1201 22.4808 31.2201 21.9808 31.2201 21.5808C31.2201 21.2808 30.8201 21.1808 30.7201 21.4808C30.5201 22.1808 30.1201 22.8808 30.1201 23.5808C30.1201 23.8808 30.2201 24.1808 30.5201 24.1808C31.0201 24.2808 31.2201 23.8808 31.3201 23.5808Z" fill="#2153A5"/>
<path d="M29.5204 34.8808C30.3205 33.1808 30.4204 31.2808 29.9204 29.4808C29.8204 29.0808 29.2204 29.1808 29.2204 29.5808C29.5204 31.2808 29.3204 32.9808 28.7204 34.5808C28.5204 35.0808 29.2204 35.2808 29.5204 34.8808Z" fill="#2153A5"/>
<path d="M27.9199 41.3808C28.0199 40.6808 28.02 40.0808 28.12 39.3808C28.12 39.0808 27.72 38.9807 27.62 39.2807C27.42 39.9807 27.22 40.5807 27.12 41.2807C27.02 41.8807 27.8199 41.8808 27.9199 41.3808Z" fill="#2153A5"/>
<path d="M26.2203 49.8808C26.4203 48.8808 26.4203 47.8808 26.4203 46.8808C26.4203 46.4808 25.9203 46.4808 25.8203 46.8808C25.6203 47.7808 25.4203 48.7808 25.3203 49.7808C25.4203 50.1808 26.1203 50.3808 26.2203 49.8808Z" fill="#2153A5"/>
<path d="M110.92 33.5808C87.32 28.6808 64.1201 22.5808 41.0201 15.7808C40.1201 15.4808 39.6201 16.8808 40.5201 17.2808C63.2201 25.1808 86.8201 31.1808 110.52 35.6808C111.72 35.7808 112.12 33.7808 110.92 33.5808Z" fill="#2153A5"/>
<path d="M61.2203 29.7809C57.4203 28.4809 53.5203 27.5809 49.7203 26.4809C46.3203 25.4809 42.7203 24.0809 39.2203 23.8809C38.8203 23.8809 38.5203 24.4809 38.9203 24.6809C42.0203 26.3809 45.8203 27.1809 49.1203 28.1809C52.9204 29.3809 56.7204 30.6809 60.6203 31.5809C61.7204 31.7809 62.3203 30.1809 61.2203 29.7809Z" fill="#2153A5"/>
<path d="M108.12 40.6807C103.22 38.2807 98.12 37.9808 92.82 37.2808C84.72 36.1808 76.82 33.7808 68.92 31.7808C68.32 31.5808 68.02 32.4808 68.62 32.6808C75.02 34.9808 81.52 36.9808 88.22 38.2808C94.42 39.5808 101.22 39.3807 107.02 42.1807C108.12 42.8807 109.22 41.1807 108.12 40.6807Z" fill="#2153A5"/>
<path d="M76.8204 44.7808C76.9204 44.6808 76.9204 44.6808 77.0204 44.5808C77.4204 44.1808 77.4203 43.4808 76.9203 43.1808C75.0203 41.7808 72.0203 41.6808 69.7203 41.1808C66.1203 40.2808 62.5204 39.3808 59.0204 38.3808C51.9204 36.4808 44.8203 34.3808 37.7203 32.2808C37.0203 32.0808 36.6204 33.1808 37.3204 33.3808C43.6204 35.5808 49.9204 37.4808 56.3204 39.3808C59.1204 40.1808 62.0204 40.9808 64.8204 41.6808C66.6204 42.1808 68.4203 42.5808 70.2203 43.0808C70.9203 43.2808 71.6204 43.4808 72.3204 43.5808C73.3204 43.8808 74.2203 43.9808 75.2203 43.6808C75.1203 43.9808 75.1204 44.3808 75.5204 44.6808C75.6204 44.6808 75.6203 44.7808 75.7203 44.7808C76.1203 45.0808 76.6204 44.9808 76.8204 44.7808Z" fill="#2153A5"/>
<path d="M75.3203 50.2808C63.2203 45.5808 49.3203 43.2808 36.6203 40.6808C35.9203 40.5808 35.6203 41.4808 36.3203 41.6808C48.9203 44.9808 62.6203 47.1808 74.8203 51.9808C75.8203 52.3808 76.4203 50.6808 75.3203 50.2808Z" fill="#2153A5"/>
<path d="M27.8202 12.2808C24.9202 11.2808 21.8201 10.6808 18.9201 9.98083C16.6201 9.38083 14.0202 8.38082 11.6202 8.58082C11.4202 8.58082 11.3201 8.88082 11.5201 9.08082C13.7201 10.5808 16.9201 10.9808 19.4201 11.5808C22.1201 12.2808 24.8202 13.1808 27.6202 13.6808C28.4202 13.8808 28.6202 12.5808 27.8202 12.2808Z" fill="#2153A5"/>
<path d="M27.4201 19.2807C21.4201 17.9807 15.4201 16.6808 9.42006 15.4808C9.02006 15.3808 8.92008 15.9808 9.32008 16.1808C14.7201 17.6808 20.1201 18.9808 25.5201 20.3808C25.3201 20.8808 25.8201 21.4808 26.4201 21.1808C26.8201 21.0808 27.2201 20.8808 27.5201 20.6808C28.0201 20.4808 28.1201 19.4807 27.4201 19.2807Z" fill="#2153A5"/>
<path d="M24.8201 24.5808C19.0201 23.7808 13.2201 22.4808 7.42006 21.3808C7.02006 21.2808 6.92008 21.8808 7.32008 22.0808C12.9201 23.8808 18.7201 25.0808 24.5201 26.2808C25.6201 26.4808 26.0201 24.7808 24.8201 24.5808Z" fill="#2153A5"/>
<path d="M23.02 38.7808C17.72 38.4808 12.62 37.1808 7.62 35.3808C7.02 35.1808 6.82001 35.9808 7.32001 36.2808C12.32 38.4808 17.52 39.6808 22.92 40.2808C23.92 40.3808 24.02 38.7808 23.02 38.7808Z" fill="#2153A5"/>
</g>
</svg>
