<svg width="146" height="171" viewBox="0 0 146 171" fill="none" xmlns="http://www.w3.org/2000/svg">
<g opacity="0.2">
<path d="M144.545 64.2811C144.445 63.9811 144.145 63.7811 143.645 63.7811L118.445 65.2811C110.345 65.7811 100.045 68.3811 93.5454 62.7811C87.5454 57.6811 81.9454 52.0811 76.0454 46.7811C71.9454 43.0811 67.1454 36.5811 61.8454 34.6811C59.5454 33.8811 56.7454 34.2811 54.3454 34.3811C50.3454 34.4811 46.3454 34.4811 42.3454 34.4811C33.9454 34.4811 25.5454 34.2811 17.2454 33.9811C11.5454 33.7811 8.24537 32.0811 4.54537 27.7811C2.04537 24.8811 -0.354649 21.9811 -2.85465 19.0811C-8.25465 12.7811 -13.7547 6.38114 -19.3546 0.181139C-19.6546 -0.118861 -19.9546 -0.0188621 -20.1546 0.281138C-20.6546 0.181138 -21.2546 0.281136 -21.4546 0.881136C-34.1546 36.9811 -47.9546 72.9811 -59.2546 109.481C-59.2546 109.581 -59.2546 109.581 -59.2546 109.681C-59.7546 109.481 -60.2546 110.181 -59.8546 110.581C-53.4546 116.081 -46.7546 121.181 -40.0546 126.381C-33.9546 131.081 -28.0546 136.481 -21.6546 140.681C-16.4546 144.081 -8.15461 141.681 -2.25461 141.281C2.34539 140.981 6.8454 140.681 11.4454 140.381C16.2454 140.081 21.3454 138.781 25.4454 141.981C31.7454 146.881 37.2454 153.881 42.8454 159.581C46.3454 163.081 49.6454 167.881 54.8454 168.781C62.9454 170.081 71.8454 169.381 79.9454 169.581C89.1454 169.881 98.3454 170.081 107.545 170.381C107.745 170.381 107.945 170.281 108.145 170.181C109.845 169.781 109.645 167.781 109.845 166.181C113.445 159.581 115.145 150.981 117.545 144.181C120.645 135.181 123.745 126.081 127.245 117.181C133.845 100.181 142.245 83.7811 145.645 65.7811C145.745 64.6811 145.145 64.2811 144.545 64.2811ZM125.445 116.381C122.145 124.981 119.145 133.581 116.145 142.281C113.345 150.381 108.545 159.681 107.945 168.281C107.845 168.181 107.645 168.181 107.545 168.181C99.1454 167.981 90.7454 167.681 82.3454 167.481C74.1454 167.281 65.2453 167.981 57.1453 166.781C49.1453 165.581 43.3454 157.181 37.8454 151.681C35.2454 148.981 32.5454 146.381 29.9454 143.681C28.1454 141.881 26.2454 139.081 23.8454 138.081C19.4454 136.181 11.6454 138.381 6.9454 138.681C-0.954605 139.181 -11.7546 141.881 -19.0546 138.981C-26.3546 136.081 -32.6547 129.681 -38.8547 124.881C-45.3547 119.881 -51.8546 114.781 -58.5546 110.081C-58.3546 110.081 -58.2546 109.981 -58.1546 109.781C-44.0546 74.2811 -32.2546 37.6811 -19.5546 1.68114C-14.4546 7.98114 -9.25462 14.1811 -3.95462 20.3811C-0.954624 23.8811 1.9454 27.3811 4.9454 30.7811C6.2454 32.2811 7.54539 34.1811 9.4454 35.0811C12.4454 36.3811 16.6454 35.8811 19.8454 35.9811C23.8454 36.1811 27.8454 36.2811 31.8454 36.3811C36.6454 36.4811 41.4454 36.4811 46.2454 36.4811C50.7454 36.4811 56.0454 35.5811 60.3454 36.6811C64.7454 37.8811 68.0454 41.9811 71.3454 45.0811C74.5454 47.9811 77.7454 50.9811 80.9454 53.8811C85.6454 58.1811 90.8454 64.9811 96.8454 67.5811C102.445 69.9811 110.445 67.8811 116.245 67.5811C125.445 67.0811 134.645 66.4811 143.745 65.9811C140.145 83.4811 131.945 99.6811 125.445 116.381Z" fill="#E65125"/>
<path d="M-17.9546 10.8811C-12.7546 17.2811 -7.35459 23.4811 -1.95459 29.6811C1.24541 33.3811 5.3454 40.7811 10.3454 42.1811C13.4454 43.0811 17.3454 42.0811 20.4454 41.8811C24.4454 41.6811 28.4454 41.4811 32.3454 41.2811C41.3454 40.9811 55.2454 38.5811 63.0454 43.5811C69.2454 47.4811 74.7454 53.8811 79.8454 59.0811C82.6454 61.9811 85.3454 64.8811 88.0454 67.8811C89.7454 69.7811 91.3454 72.3811 93.5454 73.7811C98.3454 76.9811 106.545 74.1811 111.845 73.5811C120.445 72.5811 129.045 71.5811 137.545 70.5811C138.445 70.4811 138.445 68.9811 137.545 69.0811C129.745 69.9811 121.945 70.8811 114.145 71.7811C110.245 72.2811 106.345 72.6811 102.445 73.1811C97.3454 73.7811 93.9454 72.2811 90.5454 68.4811C85.7454 62.9811 80.7454 57.6811 75.5454 52.6811C71.3454 48.6811 66.2454 42.4811 60.7454 40.2811C55.4454 38.1811 47.5454 39.4811 41.8454 39.5811C34.2454 39.6811 26.7454 39.9811 19.1454 40.4811C13.7454 40.8811 9.54542 40.7811 5.74542 36.3811C3.24542 33.4811 0.745422 30.6811 -1.75458 27.7811C-6.95458 21.7811 -12.2546 15.7811 -17.6546 9.98114C-17.7546 9.88114 -17.9546 9.78114 -18.0546 9.88114C-18.3546 9.58114 -19.0546 9.58114 -19.2546 10.1811C-24.9546 26.4811 -30.7546 42.6811 -36.4546 58.9811C-42.1546 75.1811 -48.9546 91.2811 -53.4546 107.881C-53.4546 107.981 -53.4546 108.081 -53.3546 108.181C-53.3546 108.281 -53.3546 108.281 -53.2546 108.381C-41.2546 117.581 -29.3546 126.681 -18.5546 137.181C-18.3546 137.381 -18.2546 137.381 -18.0546 137.281C-6.65456 136.881 4.64541 135.681 16.0454 134.781C20.1454 134.481 23.5454 133.581 27.3454 136.181C29.5454 137.681 31.5454 140.281 33.3454 142.181C37.4454 146.281 41.4454 150.481 45.3454 154.681C48.2454 157.781 51.2454 162.481 55.2454 164.281C58.7454 165.881 63.4454 165.281 67.1454 165.281C79.5454 165.381 91.8454 165.481 104.245 165.581C104.345 165.581 104.345 165.581 104.345 165.581C104.545 165.681 104.745 165.581 104.845 165.281C110.745 149.681 115.545 133.581 121.145 117.881C126.545 102.481 132.245 87.1811 137.845 71.7811C138.145 70.8811 136.745 70.5811 136.445 71.3811C125.345 102.081 113.045 132.781 104.245 164.281H104.145C92.1454 164.181 80.2454 164.081 68.2454 163.981C65.3454 163.981 62.0454 164.381 59.1454 163.881C53.8454 162.881 51.7454 159.781 48.6454 156.281C44.7454 152.081 40.7454 147.881 36.7454 143.681C33.7454 140.581 30.6454 136.281 26.9454 134.181C23.9454 132.381 20.5454 133.081 17.2454 133.381C5.64542 134.381 -6.0546 135.081 -17.6546 136.581C-17.6546 136.581 -17.6546 136.581 -17.6546 136.481C-28.3546 126.181 -39.9546 116.081 -52.6546 108.181C-45.8546 92.7811 -41.0546 76.3811 -35.5546 60.4811C-29.6546 43.8811 -23.7546 27.3811 -17.9546 10.8811Z" fill="#E65125"/>
<path d="M5.54541 61.1811C-0.754589 85.0811 -8.55459 108.281 -16.9546 131.481C-16.9546 131.581 -16.8546 131.581 -16.8546 131.481C-7.55461 108.781 -0.254566 84.9811 5.94543 61.2811C6.04543 60.9811 5.54541 60.8811 5.54541 61.1811Z" fill="#E65125"/>
<path d="M54.9456 45.7811C44.2456 72.1811 34.4455 99.2811 26.6455 126.681C26.6455 126.781 26.7455 126.781 26.8455 126.681C35.7455 99.4811 45.0455 72.4811 55.8455 45.9811C56.0455 45.4811 55.1456 45.2811 54.9456 45.7811Z" fill="#E65125"/>
<path d="M88.1455 78.3812C77.7455 104.181 67.4455 129.981 57.7455 156.081C57.6455 156.281 57.9455 156.281 57.9455 156.181C68.6455 130.481 78.8455 104.581 88.8455 78.6812C89.0455 78.1812 88.3455 77.8812 88.1455 78.3812Z" fill="#E65125"/>
<path d="M63.2455 91.4811C59.9455 89.6811 56.3455 91.7811 54.5455 94.7811C51.7455 99.4811 52.0455 106.281 53.1455 111.481C53.1455 111.581 53.2455 111.581 53.2455 111.581C53.2455 111.681 53.2455 111.781 53.1455 111.781C53.1455 112.081 53.4455 112.381 53.7455 112.381H54.0455C54.3455 112.381 54.5455 112.081 54.6455 111.881C54.9455 111.681 55.2455 111.381 55.4455 111.181C55.6455 111.081 55.8455 110.881 55.9455 110.681C56.4455 110.281 56.9455 109.781 57.3455 109.381C57.7455 109.081 58.0455 108.881 58.4455 108.581C59.5455 107.781 60.6455 107.081 61.6455 106.181C63.3455 104.681 64.9455 102.981 65.7455 100.881C67.2455 97.6811 66.5455 93.3811 63.2455 91.4811ZM65.0455 99.4811C63.8455 104.081 59.2455 106.481 55.7455 108.981C55.0455 109.481 54.1455 109.981 53.6455 110.581C53.3455 106.681 53.2455 102.681 54.3455 98.8811C55.0455 96.1811 56.4455 92.8811 59.5455 92.2811C64.0455 91.3811 65.9455 96.0811 65.0455 99.4811Z" fill="#E65125"/>
<path d="M61.5456 95.481C60.2456 94.581 58.1456 95.681 57.5456 96.981C56.6456 98.681 57.6456 100.581 59.2456 101.181C60.8456 101.781 62.7456 101.081 63.2456 99.381C63.6456 97.981 63.0456 95.981 61.5456 95.481ZM62.3456 98.881C62.1456 100.181 60.8456 100.581 59.7456 100.081C58.6456 99.681 57.9456 98.481 58.6456 97.281C59.2456 96.381 60.1456 96.181 61.0456 96.181C61.9456 96.781 62.5456 97.781 62.3456 98.881Z" fill="#E65125"/>
</g>
</svg>
