<svg width="98" height="81" viewBox="0 0 98 81" fill="none" xmlns="http://www.w3.org/2000/svg">
<g opacity="0.5">
<path d="M44.3709 30.74C37.2709 32.34 32.5709 39.44 34.3709 46.64C36.2709 54.24 43.6709 58.14 50.7709 56.14C50.8709 56.14 50.9709 56.24 51.0709 56.14C66.5709 50.84 60.4709 27.04 44.3709 30.74ZM35.8709 47.04C33.7709 40.24 38.4709 33.24 45.3709 32.04C47.9709 31.54 50.4709 32.04 52.6709 33.24C45.5709 31.54 37.9709 35.64 37.0709 43.34C36.4709 48.74 39.6709 53.34 44.2709 55.04C40.4709 53.94 37.1709 51.34 35.8709 47.04ZM50.8709 55.14C50.7709 55.14 50.6709 55.24 50.6709 55.34C50.4709 55.34 50.2709 55.34 50.0709 55.44C50.0709 55.34 50.0709 55.24 49.8709 55.24C43.1709 55.64 37.2709 50.44 38.1709 43.44C39.0709 35.94 46.5709 32.34 53.3709 34.34C53.6709 34.44 53.8709 34.14 53.9709 33.94C55.9709 35.34 57.6709 37.34 58.4709 39.84C60.5709 46.14 56.9709 52.64 50.8709 55.14Z" fill="#E65125"/>
<path d="M93.3707 28.04C90.7707 20.14 87.7707 10.44 82.7707 3.63997C78.0707 -2.76003 71.1707 0.739973 65.0707 3.13997C50.4707 8.73997 35.6707 14.74 21.4707 21.94C20.9707 21.14 20.4707 20.34 19.9707 19.64C19.8707 19.44 19.5707 19.34 19.2707 19.44C16.9707 20.54 14.5707 21.54 12.2707 22.74C10.7707 23.44 7.87072 24.24 6.77072 25.44C5.17072 27.14 7.07072 28.54 8.77072 28.74H8.87072C6.47072 30.14 4.07072 31.54 1.67072 33.04C1.27072 32.74 0.570717 32.84 0.370717 33.44C-0.429283 36.24 0.170716 38.04 1.17072 40.64C3.27072 46.04 5.97072 51.34 8.47072 56.64C10.6707 61.24 12.9707 65.74 15.2707 70.24C16.8707 73.34 18.2707 77.34 21.2707 79.34C27.5707 83.74 38.3707 76.94 44.2707 74.54C53.0707 70.94 61.7707 66.84 70.1707 62.44C74.6707 60.14 79.1707 57.64 83.5707 55.14C87.2707 53.04 91.8707 50.94 94.9707 48.04C100.071 43.44 95.0707 33.34 93.3707 28.04ZM86.3707 15.04C86.8707 16.14 87.3707 17.24 87.8707 18.34H87.7707C80.1707 22.34 72.3707 25.94 64.4707 29.44C64.0707 29.64 64.3707 30.24 64.7707 30.14C72.9707 27.24 80.7707 23.64 88.3707 19.54C90.7707 25.04 92.9707 30.94 94.0707 36.54C84.8707 40.74 75.8707 45.34 67.3707 50.84C69.6707 46.34 69.9707 40.94 67.4707 35.54C66.0707 32.54 63.9707 29.84 61.4707 27.84C69.5707 23.44 77.6707 19.14 86.0707 15.34C86.2707 15.24 86.3707 15.14 86.3707 15.04ZM64.9707 52.44C64.2707 52.34 63.6707 52.14 62.9707 52.04C63.8707 50.14 64.4707 48.14 64.7707 46.04C65.4707 46.04 66.1707 46.14 66.7707 46.04C66.8707 46.04 66.9707 45.94 67.0707 45.94C67.3707 46.04 67.7707 46.04 68.0707 46.24C67.6707 48.44 66.6707 50.44 65.3707 52.14C65.2707 52.24 65.1707 52.34 64.9707 52.44ZM64.9707 42.94C64.9707 41.64 64.7707 40.34 64.4707 39.14C65.5707 38.94 66.5707 38.64 67.5707 38.34C68.3707 40.84 68.5707 43.14 68.2707 45.34C67.2707 45.44 66.0707 45.24 65.0707 45.14H64.9707C64.9707 44.44 64.9707 43.64 64.9707 42.94ZM64.2707 38.44C63.6707 36.34 62.7707 34.34 61.5707 32.64C61.6707 32.54 61.8707 32.44 61.9707 32.44C62.0707 32.44 62.2707 32.24 62.5707 32.14C62.8707 32.64 63.8707 32.14 63.5707 31.54C63.1707 30.64 61.9707 31.54 61.2707 32.14C60.2707 30.74 58.9707 29.54 57.6707 28.44C57.9707 28.34 58.1707 28.14 58.4707 28.04C58.5707 28.14 58.7707 28.24 58.9707 28.14C59.1707 27.94 59.4707 27.74 59.6707 27.64C63.0707 29.84 65.7707 33.14 67.4707 37.54C67.4707 37.54 67.4707 37.54 67.4707 37.64C66.2707 37.74 65.2707 38.14 64.2707 38.44ZM56.9707 27.94C54.6707 26.24 51.9707 24.94 49.0707 24.34C52.4707 24.44 55.7707 25.34 58.5707 26.94C58.1707 27.24 57.5707 27.64 56.9707 27.94ZM63.2707 42.14C64.0707 51.84 56.8707 60.74 46.9707 61.14C37.4707 61.54 29.8707 53.34 29.9707 44.04C30.0707 35.84 35.5707 29.34 42.6707 26.14C44.0707 25.84 45.5707 25.64 47.0707 25.54C55.5707 27.04 62.4707 33.04 63.2707 42.14ZM62.7707 52.64C63.3707 52.84 64.0707 53.04 64.6707 53.14C62.7707 55.34 60.3707 57.24 57.6707 58.64C59.7707 57.04 61.4707 54.94 62.7707 52.64ZM18.7707 20.64C19.6707 20.74 20.1707 21.44 20.6707 22.24C19.9707 22.64 19.1707 23.04 18.4707 23.44C18.1707 23.14 17.9707 22.94 17.6707 22.74C17.2707 22.34 16.7707 22.04 16.3707 21.64C17.2707 21.14 18.2707 20.64 18.7707 20.64ZM14.7707 22.54C14.9707 22.44 15.3707 22.24 15.7707 21.94C16.2707 22.34 16.6707 22.74 17.1707 23.14C17.3707 23.34 17.5707 23.54 17.6707 23.74C16.4707 24.34 15.2707 25.04 14.0707 25.74C13.5707 25.04 12.8707 24.34 12.2707 23.64C13.0707 23.34 13.9707 22.94 14.7707 22.54ZM10.7707 24.44C11.0707 24.24 11.4707 24.14 11.7707 23.94C12.2707 24.64 12.7707 25.44 13.3707 26.14C12.7707 26.44 12.1707 26.74 11.6707 27.14C10.8707 26.54 10.2707 25.84 9.87072 24.84C10.2707 24.64 10.5707 24.54 10.7707 24.44ZM9.37072 25.04C9.57072 26.04 10.1707 26.94 10.8707 27.54C10.2707 27.94 9.57072 28.24 8.97072 28.64C9.07072 28.54 9.07072 28.34 8.87072 28.24C5.97072 27.04 7.87072 25.74 9.37072 25.04ZM8.57071 51.94C6.17071 47.04 0.770714 38.94 2.07071 33.84V33.74C20.0707 25.34 37.5707 16.04 56.0707 8.63997C60.6707 6.73997 65.8707 4.03998 70.7707 2.93998C74.6707 2.13998 79.6707 2.13998 81.9707 5.93998C82.9707 7.53998 83.7707 9.33997 84.5707 11.04C85.0707 12.04 85.4707 13.04 85.9707 14.04C85.8707 14.04 85.7707 14.04 85.6707 14.04C77.1707 17.54 68.6707 21.84 61.2707 27.34L61.1707 27.44C54.7707 22.44 45.7707 21.24 38.4707 26.14C38.3707 26.24 38.3707 26.24 38.3707 26.34C37.9707 26.54 37.5707 26.64 37.2707 26.94C37.1707 27.04 37.1707 27.14 37.1707 27.24C32.1707 30.54 29.4707 36.34 29.0707 42.24C28.9707 42.24 28.8707 42.24 28.6707 42.24C21.8707 45.44 15.1707 48.54 8.57071 51.94ZM8.87072 52.54C8.77072 52.44 8.77072 52.44 8.87072 52.54C15.6707 49.64 22.3707 46.44 28.9707 43.34C28.9707 44.34 28.9707 45.44 29.0707 46.44C28.9707 46.44 28.7707 46.44 28.6707 46.44C22.3707 49.14 16.2707 52.24 10.1707 55.34C9.77071 54.34 9.27072 53.44 8.87072 52.54ZM15.5707 66.14C13.8707 62.74 12.1707 59.24 10.4707 55.84C16.7707 53.24 23.0707 50.44 29.1707 47.34C30.2707 54.54 34.7707 60.94 42.5707 62.34C34.4707 65.14 26.4707 68.64 18.7707 72.44C17.5707 70.44 16.5707 68.14 15.5707 66.14ZM82.6707 53.54C78.5707 55.94 74.4707 58.14 70.2707 60.34C61.3707 65.04 52.1707 69.24 42.8707 73.14C38.6707 74.84 34.2707 76.94 29.8707 78.14C24.5707 79.54 21.5707 76.84 19.2707 73.24C27.9707 69.34 36.8707 65.94 45.8707 62.74C46.5707 62.74 47.1707 62.74 47.8707 62.64C49.2707 62.54 50.5707 62.24 51.7707 61.84C51.8707 61.84 51.8707 61.84 51.9707 61.84C57.7707 60.84 62.7707 57.74 65.8707 53.44C66.0707 53.44 66.1707 53.14 66.1707 53.04C66.3707 52.74 66.5707 52.44 66.7707 52.14C75.8707 47.24 84.9707 42.34 94.3707 38.04C94.4707 38.64 94.5707 39.34 94.6707 39.94C95.5707 47.64 88.1707 50.34 82.6707 53.54Z" fill="#E65125"/>
<path d="M77.7708 5.03994C76.3708 3.53994 74.7708 4.83994 73.2708 5.53994C71.5708 6.43994 69.8708 7.23994 68.2708 8.13994C67.7708 8.43994 67.0708 8.63994 66.5708 8.93994C66.3708 8.83994 66.0708 9.03993 66.1708 9.33993C66.0708 9.43993 65.9708 9.53994 65.9708 9.73994C65.8708 10.0399 66.0708 10.4399 66.3708 10.5399H66.4708C66.9708 12.0399 67.7708 13.5399 68.7708 14.8399C68.9708 15.1399 69.3708 15.2399 69.6708 15.0399C71.3708 14.1399 73.0708 13.1399 74.7708 12.1399C75.9708 11.4399 77.8708 10.7399 78.7708 9.83993C80.0708 8.63993 78.7708 6.13994 77.7708 5.03994ZM76.7708 9.43994C76.1708 10.0399 75.1708 10.3399 74.4708 10.8399C72.7708 11.8399 71.1708 12.7399 69.4708 13.7399C68.5708 12.6399 67.8708 11.5399 67.2708 10.2399C67.2708 10.2399 67.2708 10.2399 67.2708 10.1399C67.2708 10.0399 67.2708 10.0399 67.2708 9.93994V9.83993C68.2708 9.03993 70.9708 8.03994 71.6708 7.73994C73.2708 6.93994 75.7708 4.83994 76.9708 6.73994C77.2708 7.13994 77.4708 7.63994 77.3708 8.13994C77.7708 8.93994 77.5708 9.33994 76.7708 9.43994Z" fill="#E65125"/>
</g>
</svg>
