<svg width="77" height="85" viewBox="0 0 77 85" fill="none" xmlns="http://www.w3.org/2000/svg">
<path d="M39.6999 25.341C24.9999 20.941 11.0999 33.041 9.09994 47.441C7.09994 62.441 19.5999 73.5409 33.8999 74.7409C47.6999 75.9409 61.4999 66.041 62.9999 51.841C64.6999 37.041 53.4999 27.041 39.6999 25.341ZM10.8999 47.841C12.6999 33.541 24.7999 24.9409 38.5999 26.2409C38.6999 26.3409 38.7999 26.441 38.8999 26.441C45.2999 27.541 51.0999 30.1409 55.1999 34.1409C43.0999 27.3409 26.4999 26.0409 18.2999 39.6409C12.4999 49.2409 14.7999 62.741 23.0999 69.841C15.1999 65.741 9.59994 57.741 10.8999 47.841ZM36.6999 73.1409C33.2999 73.1409 29.9999 72.541 26.7999 71.441C16.1999 64.441 12.8999 48.5409 20.8999 38.2409C30.1999 26.2409 46.3999 29.641 57.3999 36.841C57.4999 36.941 57.5999 36.941 57.6999 36.941C60.1999 40.441 61.5999 44.741 61.4999 49.941C61.2999 63.041 49.1999 73.0409 36.6999 73.1409Z" fill="#010A38" fill-opacity="0.5"/>
<path d="M75.5999 43.0409C72.5999 33.7409 64.4999 27.1409 55.8999 23.2409C55.7999 23.2409 55.7999 23.2409 55.6999 23.2409C55.7999 23.0409 55.9999 22.7409 56.0999 22.5409C56.0999 22.5409 56.0999 22.5409 56.1999 22.5409C61.6999 24.1409 66.7999 20.0409 66.5999 14.2409C66.3999 7.24095 59.7999 3.14094 53.6999 1.54094C47.8999 -0.0590639 38.0999 -1.65906 33.5999 3.64094C29.6999 8.24094 31.8999 14.4409 37.0999 16.5409C36.9999 16.9409 36.8999 17.441 36.7999 17.941C35.8999 17.841 35.0999 17.841 34.1999 17.841C33.9999 17.841 33.8999 18.0409 33.8999 18.1409C21.6999 17.8409 9.59991 24.4409 3.69991 35.2409C-2.50009 46.5409 -0.700088 61.541 7.69991 71.241C9.39991 73.141 11.1999 74.841 13.1999 76.241C13.1999 76.341 13.1999 76.4409 13.2999 76.5409C13.9999 76.9409 14.6999 77.341 15.3999 77.741C17.3999 78.9409 19.3999 79.8409 21.5999 80.5409C38.5999 87.1409 59.0999 85.741 70.7999 69.941C76.3999 62.341 78.4999 52.0409 75.5999 43.0409ZM74.1999 43.441C74.5999 44.741 74.8999 46.141 75.0999 47.441C73.3999 46.741 71.5999 46.0409 69.6999 45.6409C69.1999 42.6409 68.3999 39.841 67.1999 37.341C68.8999 37.941 70.5999 38.6409 72.2999 39.2409C73.0999 40.5409 73.6999 41.941 74.1999 43.441ZM71.5999 38.0409C69.9999 37.4409 68.2999 36.941 66.6999 36.341C64.6999 32.341 61.7999 28.9409 58.3999 26.1409C63.5999 29.2409 68.4999 32.9409 71.5999 38.0409ZM39.0999 13.7409C36.1999 9.44095 36.3999 6.64095 39.6999 5.34095C40.9999 4.34095 42.3999 3.84094 44.0999 4.04094C46.2999 3.94094 48.7999 4.54094 50.9999 5.14094C54.7999 6.14094 58.0999 7.74094 60.6999 10.6409C60.6999 10.7409 60.6999 10.9409 60.7999 11.0409C62.1999 12.6409 62.8999 14.941 61.7999 16.941C60.7999 18.741 58.7999 19.341 56.7999 19.341C55.6999 13.241 43.9999 9.94095 39.0999 13.7409ZM54.4999 23.1409C53.9999 22.9409 53.4999 22.6409 52.9999 22.2409C52.7999 22.0409 52.5999 22.1409 52.4999 22.2409C47.9999 19.8409 42.9999 18.441 37.8999 17.941C40.1999 9.64096 58.1999 14.2409 54.4999 22.5409C54.3999 22.7409 54.3999 22.9409 54.4999 23.1409ZM33.8999 5.54094C36.2999 2.64094 39.1999 1.24096 42.7999 1.44096C45.9999 1.34096 49.3999 1.64096 52.4999 2.44096C55.9999 3.34096 59.5999 4.64096 62.0999 7.44096C66.2999 12.041 66.1999 23.5409 56.5999 21.0409C56.6999 20.5409 56.6999 20.1409 56.6999 19.7409C58.9999 20.5409 61.6999 19.3409 62.7999 17.2409C63.8999 15.3409 63.5999 13.041 62.2999 11.341C62.2999 11.241 62.2999 11.041 62.1999 10.941C58.3999 4.84096 47.5999 1.04095 40.6999 3.24095C35.7999 4.84095 32.8999 11.641 38.2999 14.341C37.8999 14.741 37.5999 15.2409 37.2999 15.7409C33.6999 13.8409 32.4999 10.5409 33.8999 5.54094ZM2.19991 43.5409C5.69991 27.4409 21.8999 18.441 37.4999 19.441C37.8999 19.441 37.9999 19.241 37.9999 18.941C54.6999 21.541 70.3999 34.2409 68.5999 52.7409C66.5999 72.741 46.0999 83.941 27.5999 80.341C10.2999 76.941 -1.70009 61.1409 2.19991 43.5409ZM32.9999 82.441C37.5999 82.541 42.1999 81.841 46.5999 80.341C47.4999 80.941 48.2999 81.4409 49.1999 82.0409C43.8999 83.2409 38.3999 83.241 32.9999 82.441ZM49.9999 81.841C49.0999 81.241 48.0999 80.6409 47.1999 80.1409C49.7999 79.2409 52.1999 78.141 54.4999 76.741C54.4999 76.841 54.4999 76.841 54.5999 76.841C55.4999 77.641 56.3999 78.5409 57.3999 79.1409C54.9999 80.3409 52.5999 81.241 49.9999 81.841ZM67.9999 71.0409C65.0999 74.3409 61.6999 76.9409 58.0999 78.741C57.1999 77.841 55.9999 77.141 54.8999 76.341C57.3999 74.841 59.5999 73.041 61.5999 70.941C62.2999 71.941 63.2999 72.741 64.4999 73.341C65.0999 73.641 65.4999 72.741 64.8999 72.441C63.7999 72.041 62.7999 71.341 62.0999 70.441C64.1999 68.141 65.9999 65.5409 67.3999 62.6409C68.6999 63.7409 70.0999 64.941 71.4999 65.941C70.4999 67.941 69.2999 69.5409 67.9999 71.0409ZM71.9999 65.341C70.5999 64.341 69.1999 63.341 67.7999 62.441H67.6999C68.7999 59.941 69.5999 57.241 69.8999 54.441C70.5999 54.841 71.3999 55.1409 72.0999 55.5409C72.9999 56.0409 73.8999 56.6409 74.8999 57.1409C74.2999 59.8409 73.2999 62.741 71.9999 65.341ZM74.9999 56.0409C73.4999 55.0409 71.5999 54.2409 69.8999 53.7409C70.0999 51.6409 70.1999 49.3409 69.8999 47.0409C69.8999 46.7409 69.7999 46.4409 69.7999 46.1409C71.6999 46.8409 73.4999 47.5409 75.1999 48.5409C75.4999 51.0409 75.3999 53.6409 74.9999 56.0409Z" fill="#010A38" fill-opacity="0.5"/>
<path d="M53.1999 62.7409C50.3999 58.0409 46.7999 54.1409 42.2999 51.0409C41.9999 49.1409 40.7999 47.7409 38.7999 48.1409C38.2999 48.0409 37.8999 48.0409 37.3999 48.0409C37.3999 48.0409 37.3999 48.0409 37.2999 48.0409C32.5999 45.8409 27.9999 43.6409 23.2999 41.4409C22.8999 41.2409 22.1999 41.7409 22.5999 42.1409C25.6999 46.3409 29.0999 50.3409 32.5999 54.1409C32.7999 54.3409 33.1999 54.0409 32.9999 53.8409C30.4999 50.2409 27.7999 46.7409 24.9999 43.4409C28.5999 45.1409 32.1999 46.8409 35.8999 48.5409C34.5999 49.1409 33.5999 50.3409 33.1999 51.7409C32.4999 54.3409 34.0999 57.3409 36.8999 57.8409C37.1999 57.9409 37.4999 57.9409 37.7999 57.9409C42.5999 60.0409 47.5999 61.8409 52.3999 63.8409C52.9999 63.9409 53.4999 63.2409 53.1999 62.7409ZM51.0999 61.7409C47.2999 60.2409 43.3999 58.7409 39.3999 57.5409C41.2999 56.8409 42.2999 54.7409 42.3999 52.7409C45.8999 55.2409 48.6999 58.2409 51.0999 61.7409ZM36.0999 55.9409C34.5999 55.0409 34.0999 52.8409 34.8999 51.3409C35.5999 49.8409 37.0999 49.3409 38.4999 49.0409C38.5999 49.0409 38.5999 49.0409 38.6999 49.0409C43.3999 48.8409 41.1999 59.0409 36.0999 55.9409Z" fill="#010A38" fill-opacity="0.5"/>
</svg>
