<svg width="88" height="94" viewBox="0 0 88 94" fill="none" xmlns="http://www.w3.org/2000/svg">
<path d="M78.2255 44.1021C79.9255 41.1021 81.5255 38.1021 83.0255 35.1021C83.5255 34.1021 85.3255 31.602 85.0255 30.202C84.8255 29.202 84.1255 28.202 83.1255 27.402C84.0255 25.902 84.9255 24.302 85.8255 22.702C85.9255 22.402 85.9255 22.102 85.6255 22.002L85.5255 21.902C86.0255 21.502 86.4255 21.202 86.9255 20.802C87.3255 20.602 87.2255 20.102 86.9255 19.902C86.3255 19.502 85.6255 19.202 85.0255 18.802C85.2255 18.302 85.4255 17.802 85.7255 17.402C86.2255 17.302 86.5255 16.502 85.9255 16.202C76.1255 10.802 66.0255 6.20202 55.4255 2.70202C52.4255 1.70202 48.1255 -0.497981 44.8255 0.102019C44.0255 0.302019 43.3255 0.602013 42.7255 1.00201C42.6255 1.00201 42.5255 0.902037 42.5255 0.902037C42.0255 0.602037 41.5255 1.30202 41.9255 1.70202C40.2255 3.30202 39.0255 5.60204 37.7255 7.40204C30.5255 17.802 23.2255 28.102 15.9255 38.502C12.7255 43.002 9.52551 47.6021 6.42551 52.1021C4.02551 55.5021 -0.374485 59.702 0.0255151 64.202C0.625515 71.002 11.3255 76.602 16.2255 80.202C20.7255 83.402 25.4255 86.402 30.2255 89.202C33.2255 90.902 37.1255 93.902 40.8255 93.002C43.9255 92.302 46.2255 88.802 48.1255 86.6021C51.6255 82.6021 55.0255 78.502 58.3255 74.202C65.5255 64.702 72.3255 54.702 78.2255 44.1021ZM84.6255 21.502C74.5255 15.102 63.9255 9.30202 52.9255 4.60202C59.2255 7.10202 65.4255 9.70202 71.5255 12.702C74.9255 14.402 78.2255 16.202 81.5255 18.002C82.4255 18.502 83.2255 18.802 83.8255 19.102C83.8255 19.302 83.7255 19.502 83.7255 19.702C83.7255 20.302 84.6255 20.402 84.7255 19.802C85.0255 20.202 85.0255 20.702 84.6255 21.502ZM52.8255 3.30203C63.9255 6.80203 74.5255 11.502 84.7255 17.102C84.4255 17.502 84.2255 17.902 84.0255 18.302C72.5255 11.702 60.3255 6.00202 47.6255 2.10202C47.5255 2.10202 47.4255 2.20203 47.4255 2.30203C47.0255 2.10203 46.6255 2.00203 46.2255 1.80203C48.3255 1.70203 50.3255 2.50203 52.8255 3.30203ZM45.3255 2.00201C52.7255 5.40201 60.1255 8.70201 67.3255 12.502C70.7255 14.302 74.0255 16.202 77.3255 18.102C78.5255 18.802 82.3255 20.502 83.2255 21.702C84.5255 23.502 83.4255 25.202 82.4255 26.802C80.8255 25.602 78.9255 24.602 77.8255 23.702C67.4255 16.002 56.5255 8.10202 44.9255 2.10202C45.0255 2.10202 45.1255 2.10201 45.3255 2.00201ZM72.1255 51.1021C65.8255 61.3021 58.9255 71.102 51.2255 80.302C48.1255 84.002 43.1255 92.302 37.5255 91.302C32.5255 90.402 26.5255 85.302 22.3255 82.502C17.1255 79.102 12.1255 75.402 7.3255 71.402C4.1255 68.802 3.52552 68.5021 3.02552 64.1021C2.42552 59.4021 3.7255 58.502 6.3255 54.702C13.1255 45.002 19.8255 35.202 26.6255 25.502C29.8255 21.002 32.9255 16.402 36.1255 11.902C37.7255 9.60204 39.4255 6.00202 41.5255 4.10202C42.2255 3.50202 42.8255 3.10202 43.4255 2.70202C52.6255 8.90202 62.2255 14.502 71.2255 20.902C73.6255 22.602 76.7255 24.302 78.8255 26.402C82.6255 30.202 82.3255 32.802 80.0255 37.202C77.5255 42.002 74.9255 46.6021 72.1255 51.1021Z" fill="#010A38" fill-opacity="0.5"/>
<path d="M49.9254 48.202C49.9254 48.102 49.8254 48.002 49.7254 47.902C49.6254 47.802 49.5254 47.702 49.3254 47.602C48.8254 47.202 48.3254 46.802 47.8254 46.402C47.7254 46.302 47.5254 46.302 47.4254 46.302C38.5254 40.402 28.5253 38.802 20.3253 47.402C19.8253 48.002 19.3253 48.602 18.8253 49.202C18.4253 49.002 18.1254 49.502 18.4254 49.802C12.4254 57.902 13.6253 67.602 22.3253 74.202C24.9254 76.202 27.9254 77.402 31.0254 78.102C38.3254 79.602 46.3254 77.402 51.3254 71.402C57.1254 64.302 56.0254 54.202 49.9254 48.202ZM53.2254 62.702C52.7254 62.002 52.2254 61.302 51.7254 60.702C52.2254 59.602 52.6254 58.502 52.9254 57.302C53.3254 59.002 53.4254 60.902 53.2254 62.702ZM47.1254 47.602C49.5254 49.602 51.3254 52.302 52.3254 55.102C52.2254 55.202 52.2254 55.302 52.1254 55.402C51.7254 56.902 51.2254 58.202 50.7254 59.502C48.4254 56.802 45.9254 54.402 43.1254 52.402C44.5254 50.802 45.8254 49.202 47.1254 47.602ZM45.1254 67.902C42.4254 65.102 39.4254 62.502 36.3253 60.002C38.3253 57.802 40.3253 55.602 42.3253 53.402C45.2253 55.502 47.8254 58.002 50.1254 60.902C48.7254 63.502 47.0254 65.802 45.1254 67.902ZM35.2254 61.202C38.2254 63.602 41.1254 66.202 44.0254 68.902C42.1254 70.702 40.0254 72.202 37.8253 73.702C35.0254 72.302 32.0254 70.702 29.1254 68.702C31.0254 66.102 33.0254 63.602 35.2254 61.202ZM27.5254 53.902C29.6254 51.902 32.0254 50.202 34.7254 48.902C36.9254 49.902 39.0254 51.102 41.0254 52.502C38.9254 54.502 36.8253 56.702 34.8253 58.902C32.5254 57.102 30.0254 55.502 27.5254 53.902ZM43.5254 46.002C43.6254 46.002 43.6254 46.002 43.7254 45.902C44.7254 46.302 45.6254 46.802 46.6254 47.302C45.1254 48.702 43.6254 50.102 42.1254 51.502C40.3254 50.202 38.4254 49.102 36.4254 48.202C38.5254 47.302 40.9254 46.502 43.5254 46.002ZM41.7254 45.102C39.3254 45.602 36.8254 46.402 34.5254 47.502C32.0254 46.402 29.4254 45.602 26.6254 45.102C31.7254 42.202 36.7254 43.002 41.7254 45.102ZM24.2254 46.602C24.6254 46.302 25.1254 45.902 25.5254 45.702C28.1254 46.402 30.6254 47.202 33.0254 48.202C30.5254 49.502 28.1254 51.202 26.1254 53.202C24.3254 52.102 22.4254 51.102 20.5254 50.102C21.7254 48.702 22.9254 47.602 24.2254 46.602ZM20.0254 50.702C21.8254 51.802 23.5253 52.902 25.3253 54.002C23.3253 56.102 21.8254 58.402 20.7254 61.002C19.2254 59.102 18.0253 57.002 17.3253 54.802C18.0253 53.402 18.9254 52.002 20.0254 50.702ZM16.3253 57.502C16.4253 57.002 16.6253 56.502 16.8253 56.002C17.4253 58.302 18.7254 60.202 20.2254 62.002C19.5254 64.002 19.1254 66.102 19.1254 68.402C16.8254 65.202 15.5253 61.402 16.3253 57.502ZM23.4254 72.702C22.1254 71.702 20.9253 70.502 19.8253 69.202C20.2253 67.102 20.7254 65.102 21.4254 63.202C22.8254 64.702 24.4254 66.002 26.0254 67.302C26.4254 67.702 26.9254 68.102 27.4254 68.402C26.4254 70.002 25.4254 71.602 24.6254 73.302V73.402C24.1254 73.202 23.7254 72.902 23.4254 72.702ZM27.8253 67.802C25.6253 66.202 23.5253 64.302 21.8253 62.402C23.0253 59.502 24.6254 57.002 26.7254 54.902C29.2254 56.602 31.5254 58.302 33.8253 60.102C31.6253 62.602 29.6253 65.102 27.8253 67.802ZM25.6254 74.002C26.5254 72.402 27.5254 70.902 28.5254 69.402C31.0254 71.302 33.6253 73.002 36.3253 74.502C35.2253 75.202 34.0254 75.902 32.8253 76.502C30.3253 76.202 27.8254 75.302 25.5254 74.002C25.6254 74.102 25.6254 74.002 25.6254 74.002ZM34.6254 76.702C35.7254 76.202 36.7254 75.702 37.7254 75.202C38.4254 75.602 39.2254 75.902 39.9254 76.202C38.2254 76.602 36.4254 76.802 34.6254 76.702ZM48.9254 71.402C46.9254 73.402 44.6254 74.802 42.1254 75.702C41.2254 75.302 40.2254 74.902 39.1254 74.502C41.2254 73.202 43.2254 71.802 45.0254 70.102C45.7254 70.802 46.4254 71.502 47.1254 72.202C47.7254 72.802 48.6254 71.902 48.0254 71.302C47.4254 70.602 46.7254 69.802 46.0254 69.102C48.0254 67.102 49.6254 64.802 50.9254 62.202C51.3254 62.802 51.7254 63.302 52.2254 63.902C52.4254 64.202 52.7254 64.202 52.9254 64.202C52.4254 66.702 51.0254 69.202 48.9254 71.402Z" fill="#010A38" fill-opacity="0.5"/>
<path d="M43.0254 18.2021C43.8254 16.3021 42.7254 14.202 40.8254 13.602C40.9254 13.102 40.1254 12.7021 39.7254 13.3021C37.2254 16.8021 34.7254 20.3021 32.7254 24.1021C32.6254 24.4021 32.9254 24.7021 33.1254 24.4021C34.5254 22.8021 35.7254 21.102 37.0254 19.302C38.7254 21.102 42.1254 20.5021 43.0254 18.2021ZM37.8254 18.502L37.7254 18.4021C38.7254 17.0021 39.6254 15.6021 40.5254 14.2021C41.7254 14.9021 42.6254 16.402 42.0254 17.802C41.4254 19.502 39.1254 19.602 37.8254 18.502Z" fill="#010A38" fill-opacity="0.5"/>
<path d="M46.4257 18.502C46.6257 18.002 45.8257 17.602 45.5257 18.002C42.4257 21.202 39.2257 24.602 36.7257 28.302C36.5257 28.602 36.9257 28.902 37.2257 28.702C37.8257 28.202 38.3257 27.702 38.8257 27.202C39.5257 27.702 40.3257 28.202 41.1257 28.602C41.6257 28.802 42.0257 28.202 41.5257 27.902C40.8257 27.402 40.1257 27.102 39.3257 26.702C41.0257 25.002 42.7257 23.102 44.3257 21.202C43.2257 24.302 42.0257 27.402 41.0257 30.602C40.8257 31.302 41.8257 31.502 42.0257 30.902C43.6257 26.702 45.0257 22.602 46.4257 18.502Z" fill="#010A38" fill-opacity="0.5"/>
<path d="M50.9254 31.4021C50.9254 30.1021 50.1254 29.002 49.5254 28.002C49.1254 27.402 48.2253 26.302 48.3253 25.502C48.6253 24.102 50.3254 23.702 51.5254 24.002C52.4254 24.202 53.2254 24.902 54.0254 25.302C54.3254 25.502 54.6253 25.102 54.4254 24.802C52.6253 23.202 47.9253 21.002 47.1253 25.002C46.9253 26.302 47.6253 27.4021 48.3253 28.4021C48.7253 29.1021 49.4254 29.8021 49.5254 30.6021C50.4254 34.3021 45.8254 33.102 44.2254 32.502C43.9254 32.402 43.7254 32.902 44.0254 33.002C46.2254 34.302 50.8254 35.3021 50.9254 31.4021Z" fill="#010A38" fill-opacity="0.5"/>
<path d="M58.2255 27.3023C58.5255 26.6023 57.6255 26.1023 57.2255 26.7023C55.0255 29.9023 52.8255 33.7023 51.4255 37.3023C51.3255 37.6023 51.7255 37.8023 51.9255 37.6023C53.1255 36.0023 54.3255 34.3023 55.4255 32.6023C55.4255 32.7023 55.4255 32.7023 55.4255 32.8023C56.1255 35.0023 59.1254 35.2023 60.3254 33.3023C61.8254 31.1023 60.3255 28.6023 58.2255 27.3023ZM56.5255 32.5023C56.3255 32.1023 55.9255 32.0023 55.6255 32.2023C56.4255 30.8023 57.2255 29.3023 57.9255 27.9023C59.1255 28.8023 60.2254 30.2023 59.8254 31.9023C59.4254 33.3023 57.2255 34.3023 56.5255 32.5023Z" fill="#010A38" fill-opacity="0.5"/>
<path d="M66.1256 33.202C66.2256 33.202 66.3256 33.202 66.4256 33.202C66.6256 33.202 66.7256 33.002 66.6256 32.902C66.4256 32.602 66.2256 32.502 66.0256 32.402C65.9256 32.302 65.7256 32.302 65.6256 32.302C62.3256 31.702 55.5256 40.102 56.3256 42.602C57.2256 45.202 60.2256 43.702 61.5256 42.502C64.1256 39.902 65.6256 36.702 66.1256 33.202ZM61.5256 40.602C61.0256 41.102 58.4256 44.002 57.9256 40.802C57.8256 40.302 59.2256 38.902 59.4256 38.502C60.1256 37.602 60.8256 36.702 61.6256 35.902C62.5256 34.902 63.5256 33.802 64.8256 33.402C64.5256 35.002 64.1256 36.502 63.3256 38.002C62.8256 38.902 62.2256 39.802 61.5256 40.602Z" fill="#010A38" fill-opacity="0.5"/>
<path d="M66.1254 41.9021C70.3254 42.8021 73.0254 37.302 69.3254 34.702C69.7254 34.002 68.6254 33.4021 68.2254 34.1021C65.9254 38.0021 63.7254 42.0021 61.6254 46.1021C61.4254 46.4021 61.9254 46.7021 62.1254 46.4021C63.0254 45.0021 63.9254 43.602 64.8254 42.2021C64.8254 43.8021 64.9254 45.402 65.0254 47.002C65.0254 47.802 66.2254 47.802 66.2254 47.002C66.2254 45.202 66.1254 43.5021 66.1254 41.9021ZM68.9254 35.4021C71.5254 37.7021 69.2254 41.8021 65.8254 40.6021C66.9254 38.8021 67.9254 37.1021 68.9254 35.4021Z" fill="#010A38" fill-opacity="0.5"/>
<path d="M75.9256 39.102C75.5256 38.702 75.0256 38.402 74.5256 38.102C74.4256 37.902 74.2256 37.702 73.9256 37.702C73.5256 37.402 73.1256 37.202 72.8256 36.902C72.4256 36.702 72.0256 37.202 72.3256 37.502C72.6256 37.802 72.9256 38.002 73.2256 38.202C70.7256 41.402 68.6256 44.902 67.2256 48.802C67.1256 49.102 67.6256 49.302 67.7256 49.002C69.7256 45.602 71.7256 42.202 74.2256 39.002C74.5256 39.302 74.9256 39.602 75.3256 39.802C75.8256 40.202 76.3256 39.602 75.9256 39.102Z" fill="#010A38" fill-opacity="0.5"/>
</svg>
