<svg width="232" height="156" viewBox="0 0 232 156" fill="none" xmlns="http://www.w3.org/2000/svg">
<g opacity="0.5">
<path d="M45.0437 104.836C44.8437 104.636 45.0437 104.236 45.3437 104.336C47.8437 104.836 50.1437 106.336 50.0437 109.036C49.9437 111.436 48.1437 113.436 45.7437 113.336C43.5437 113.336 41.3437 111.636 41.2437 109.236C41.1437 107.236 42.8437 104.836 45.0437 104.836ZM46.1437 111.936C47.8437 111.736 48.8437 110.036 48.6437 108.436C48.4437 106.736 47.0437 105.936 45.7437 105.236C45.7437 105.436 45.6437 105.636 45.4437 105.736C43.9437 106.336 42.6437 107.436 42.6437 109.136C42.6437 110.936 44.5437 112.136 46.1437 111.936Z" fill="#2153A5"/>
<path d="M57.8439 111.835C58.8439 110.335 61.1439 109.535 62.6439 110.835C62.7439 110.935 62.7439 111.135 62.6439 111.335C63.4439 112.035 63.8439 113.235 63.6439 114.335C63.3439 116.335 61.2439 117.135 59.4439 116.435C57.7439 115.635 56.7439 113.535 57.8439 111.835ZM59.9439 115.335C61.1439 115.835 62.4439 115.335 62.6439 114.035C62.8439 112.935 62.3439 111.835 61.3439 111.335C60.4439 111.235 59.4439 111.535 58.8439 112.335C58.0439 113.435 58.7439 114.835 59.9439 115.335Z" fill="#2153A5"/>
<path d="M72.0438 120.936C72.2438 119.236 74.0437 117.836 75.7437 118.436C75.8437 118.436 75.9438 118.536 75.9438 118.636C77.0438 119.036 77.8438 120.236 77.8438 121.436C77.8438 123.136 76.4438 124.236 74.8438 124.136C73.2438 123.836 71.8438 122.636 72.0438 120.936ZM75.0438 122.836C77.2438 122.836 77.3438 120.136 75.8438 119.136C75.7438 119.236 75.6438 119.236 75.5438 119.236C74.4438 119.136 73.2437 119.936 73.1437 121.036C73.0437 122.136 74.0438 122.836 75.0438 122.836Z" fill="#2153A5"/>
<path d="M6.54395 98.2355C11.344 94.4355 17.3439 92.3355 23.3439 91.6355C34.8439 90.1355 45.844 94.0355 56.044 99.2355C56.044 98.9355 56.244 98.6355 56.544 98.5355C61.944 96.3355 67.644 95.5355 73.444 95.4355C76.2439 95.4355 82.944 94.4355 85.044 97.1355C89.044 102.035 77.6439 108.235 73.6439 109.535C77.7439 112.035 81.844 114.535 86.044 116.735C90.244 118.935 94.5439 120.935 99.1439 121.235C100.044 119.335 100.144 115.935 102.844 115.635C104.944 115.435 107.144 117.935 108.344 119.835C110.144 119.335 112.044 119.035 114.044 119.035C114.544 119.035 114.844 119.435 114.844 119.835C115.544 126.535 116.644 141.635 107.244 142.435C101.644 142.935 95.0439 141.135 89.6439 139.735C84.0439 138.335 78.4439 136.335 73.2439 133.635C74.5439 137.735 76.144 141.735 78.044 145.535C79.144 147.835 81.9439 150.935 80.2439 153.535C76.0439 159.835 62.444 147.435 59.444 144.535C55.444 140.735 51.9439 136.435 48.6439 132.135C46.9439 129.935 44.7439 127.235 43.7439 124.335C43.5439 124.635 43.2439 124.735 42.8439 124.735C34.0439 123.035 25.444 120.535 17.044 117.435C12.644 115.835 2.44394 113.435 0.343941 108.835C-1.35606 104.635 3.64395 100.535 6.54395 98.2355ZM21.544 93.9355C21.444 93.9355 21.3439 93.8355 21.3439 93.7355C19.2439 94.1355 17.1439 94.7355 15.1439 95.5355C13.1439 96.3355 10.844 97.3355 8.74397 98.7355C12.944 102.835 18.0439 104.735 23.6439 106.135C25.8439 106.635 26.9439 106.735 29.3439 106.535C33.4439 107.135 34.5439 104.835 32.6439 99.7355C31.7439 99.1355 30.7439 98.4355 29.8439 97.8355C27.1439 96.3355 24.2439 95.2355 21.544 93.9355ZM80.7439 103.735C82.2439 102.235 84.9439 99.3355 82.1439 97.4355C81.0439 96.6355 77.5439 97.0355 76.2439 97.0355C69.6439 96.8355 63.3439 97.5355 57.1439 99.8355C59.7439 101.235 62.3439 102.735 64.8439 104.135C67.5439 105.735 70.1439 107.435 72.8439 109.035C72.8439 109.035 72.844 108.935 72.944 108.935C75.844 107.535 78.4439 105.935 80.7439 103.735ZM106.644 119.035C106.044 118.435 104.944 117.235 104.044 117.035C103.244 117.335 102.544 117.535 101.744 117.835C101.644 118.135 101.544 118.335 101.344 118.635C101.244 119.035 101.144 119.435 101.044 119.835C100.944 120.335 100.744 120.835 100.544 121.335C101.244 121.335 102.044 121.335 102.844 121.235C104.544 121.035 106.044 120.635 107.644 120.235C107.244 119.735 106.944 119.335 106.644 119.035ZM15.544 114.935C24.644 118.535 33.9439 121.135 43.4439 123.235H43.544C43.344 122.435 43.3439 121.535 43.4439 120.735C43.9439 116.735 46.4439 116.635 49.9439 117.235C56.6439 118.235 63.0439 120.135 69.1439 122.935C69.6439 123.135 69.2439 123.935 68.7439 123.835C64.8439 122.635 60.944 121.435 57.044 120.435C55.544 120.035 53.2439 119.035 51.6439 119.235C50.8439 118.835 50.144 118.735 49.544 118.835C48.844 118.635 48.0439 118.735 47.3439 119.035C46.1439 119.535 45.1439 120.835 45.1439 122.235C45.1439 123.335 45.4439 124.235 45.9439 125.235C46.0439 125.435 46.2439 125.635 46.3439 125.835C46.4439 125.935 46.544 126.135 46.544 126.235C46.544 126.235 46.5439 126.335 46.6439 126.335C46.8439 126.835 47.144 127.235 47.544 127.535C48.844 130.635 52.2439 133.735 54.3439 136.235C56.6439 138.935 58.944 141.435 61.544 143.835C63.944 145.935 66.4439 147.935 69.1439 149.635C69.3439 149.835 69.5439 150.035 69.7439 150.135C69.9439 150.235 70.0439 150.335 70.2439 150.435C71.4439 151.535 72.8439 152.435 74.6439 152.935C76.3439 153.435 77.7439 152.635 78.444 151.435C78.0439 150.535 77.7439 149.735 77.444 148.835C76.844 148.035 76.4439 146.535 76.3439 145.935C76.0439 145.335 75.7439 144.835 75.6439 144.735C72.6439 138.235 70.5439 131.535 68.944 124.535C68.7439 123.435 70.3439 122.935 70.6439 124.035C71.2439 126.835 72.0439 129.535 72.8439 132.235C81.0439 135.235 89.0439 138.135 97.6439 139.535C99.8439 139.935 104.244 141.335 106.544 140.535C106.644 140.535 106.644 140.535 106.644 140.435C102.944 140.935 102.644 135.835 100.744 133.935C100.344 133.535 100.644 132.935 101.144 132.935C101.144 132.735 101.344 132.435 101.644 132.435C103.744 132.135 105.944 132.035 108.144 131.935C108.344 131.935 108.444 132.335 108.244 132.335C106.144 132.735 104.044 133.135 101.944 133.435C103.244 135.135 103.544 138.335 105.644 139.135C109.244 140.535 108.344 133.935 108.544 132.235C108.644 131.835 109.244 131.935 109.244 132.335C109.144 134.335 110.044 137.835 108.544 139.635C111.044 137.935 112.544 134.935 113.044 132.035C113.444 129.635 114.044 126.435 113.644 124.035C113.044 120.735 113.144 120.235 108.844 121.335C101.744 123.035 97.1439 123.435 90.1439 120.535C81.9439 117.135 74.4439 112.035 66.8439 107.435C54.0439 99.6355 38.9439 91.6355 23.7439 93.4355C27.9439 95.0355 33.6439 96.8355 35.3439 101.035C36.4439 103.835 35.144 106.435 32.544 107.735C28.444 109.835 22.8439 107.535 18.8439 106.235C14.6439 104.835 10.744 102.835 8.24397 99.1355C6.54397 100.335 5.04393 101.635 4.14393 103.235C-0.556068 110.635 11.344 113.235 15.544 114.935Z" fill="#2153A5"/>
</g>
<path opacity="0.5" d="M123.044 135.836C123.144 135.536 123.544 135.636 123.444 135.936C122.244 143.336 134.244 146.136 139.344 147.236C145.844 148.636 153.244 148.536 159.244 145.136C161.144 144.036 162.944 142.336 164.344 140.436C162.144 139.636 160.044 138.736 158.144 137.636C151.644 133.936 143.844 123.436 152.644 117.736C160.444 112.636 169.244 120.636 169.644 128.636C169.844 132.636 168.644 136.236 166.644 139.336C167.644 139.636 168.644 139.836 169.544 140.036C179.744 142.036 190.944 142.436 201.144 140.836C223.644 137.236 241.244 119.136 239.444 95.4356C238.544 83.8356 233.144 73.4356 225.044 65.2356C219.044 59.1356 212.044 53.8356 207.744 46.3356C196.444 26.3356 214.644 7.83556 231.844 0.0355569C232.344 -0.164443 232.744 0.535558 232.244 0.735558C218.444 7.03556 204.244 18.5356 205.244 35.4356C206.144 50.1356 220.644 58.1356 229.344 68.1356C245.344 86.5356 245.144 115.636 226.044 131.836C216.944 139.536 205.044 142.736 193.244 143.336C184.544 143.836 174.144 143.636 165.244 140.836C161.644 145.236 156.144 148.136 150.344 148.836C143.644 149.536 120.844 146.936 123.044 135.836ZM160.044 117.336C155.244 116.136 149.844 119.336 149.744 124.536C149.644 128.136 152.344 131.536 154.944 133.836C157.944 136.436 161.544 137.936 165.344 139.036C170.144 131.236 170.744 120.036 160.044 117.336Z" fill="#2153A5"/>
</svg>
